<svg height="253" viewBox="0 0 735 253" width="735" xmlns="http://www.w3.org/2000/svg" xmlns:xlink="http://www.w3.org/1999/xlink"><linearGradient id="a" x1="50%" x2="50%" y1="0%" y2="100%"><stop offset="0" stop-color="#def5fd"/><stop offset="1" stop-color="#bae7fa"/></linearGradient><g fill="none" fill-rule="evenodd"><g transform="translate(19.644489 22.775372)"><g transform="translate(.310405 .046409)"><path d="m165.813636 81.0540951c0 44.4922189-37.182698 80.5837509-82.8880546 80.5837509-45.812096 0-82.88805408-36.091532-82.88805408-80.5837509.00042358-44.5957119 37.07595808-80.68724408 82.88805408-80.68724408 45.7053566 0 82.8880546 36.09153218 82.8880546 80.68724408z" fill="url(#a)" opacity=".2"/><path d="m82.9255814 12.2450859c41.8134806 0 75.8300196 33.9188878 75.8300196 75.8300191 0 41.813868-34.016539 75.732756-75.8300196 75.732756-41.9111313 0-75.83001915-33.918888-75.83001915-75.732756.0003875-41.9111313 33.91888785-75.8300191 75.83001915-75.8300191z" fill="#2799eb"/><path d="m66.5508791 162.053249c-34.016151-7.407502-59.45531685-37.719902-59.45531685-73.978144 0-36.3555049 25.43877835-66.6679049 59.45531685-74.0754068 34.0161509 7.4075019 59.5525799 37.7199019 59.5525799 74.0754068.000388 36.257854-25.536041 66.570642-59.5525799 73.978144z" fill="#47c6ff"/><path d="m82.9255814 170.338057h-60.8197139c-10.2339468 2.729181-16.17978845 9.454291-17.54418552 20.468281h78.36389942 78.3638996c-1.364785-11.01399-7.407502-17.7391-17.641449-20.468281z" fill="#2c3337"/><path d="m82.9255814 154.061005h-40.6439974c-8.7718991.487479-19.5909749 5.555627-20.1757165 16.374315h60.8197139 60.7224506c-.487478-10.819076-11.403817-15.887224-20.176104-16.374315z" fill="#40494c"/></g><path d="m50.8535415 44.3610057c2.022048 6.6561124 7.2309613 11.8650258 13.8870738 13.8870738 6.9381668 2.3198824 6.9381668 4.6290246 0 6.9274266-6.6561125 2.022048-11.8650258 7.2309613-13.8870738 13.8870738-2.3198824 6.9381668-4.6290246 6.9381668-6.9274266 0-2.022048-6.6561125-7.2309614-11.8650258-13.8870738-13.8870738-6.9381668-2.3198824-6.9381668-4.6290246 0-6.9274266 6.6561124-2.022048 11.8650258-7.2309614 13.8870738-13.8870738 2.298402-6.9596472 4.6075442-6.9596472 6.9274266 0z" fill="#fff" fill-rule="nonzero"/></g><g transform="translate(215.448755 74.775372)"><path d="m49.8194027 62.7363783v-18.576h45.072v41.328c-10.08 10.8-25.2 17.1359997-40.464 17.1359997-29.232 0-53.71200003-23.4719997-53.71200003-51.2639997s24.48000003-51.12000002 53.71200003-51.12000002c15.264 0 30.384 6.336 40.464 16.99200002l-18 15.984c-5.328-6.624-13.968-10.656-22.464-10.656-15.408 0-28.512 13.248-28.512 28.8 0 15.696 13.104 28.944 28.512 28.944 5.76 0 11.664-1.872 16.56-5.184v-12.384zm104.4143973-36.288h24.336v74.4479997h-24.336v-8.4959997c-4.608 6.336-12.528 10.2239997-21.888 10.2239997-15.984 0-27.36-11.9519997-27.36-28.7999997v-47.376h23.328v41.904c0 8.208 5.184 13.968 12.672 13.968s13.104-5.616 13.104-12.96l.144.432zm71.294397 56.448c5.76 0 12.384-2.448 16.848-6.336l14.4 14.544c-6.624 6.768-19.44 11.5199997-30.528 11.5199997-23.04 0-40.032-16.2719997-40.032-39.1679997 0-22.608 16.416-38.736 38.88-38.736 23.616 0 37.44 17.28 37.44 45.648h-53.136c2.304 7.488 8.208 12.528 16.128 12.528zm0-38.592c-7.344 0-13.248 4.32-15.84 11.232h30.24c-2.016-6.768-7.056-11.232-14.4-11.232zm73.742397 58.3199997c-12.528 0-25.488-4.1759997-34.56-11.2319997l9.792-15.696c6.912 4.896 16.416 8.496 25.344 8.496 5.328 0 8.352-1.728 8.352-4.608 0-3.6-4.896-5.04-12.24-6.768-14.4-3.312-27.792-7.056-27.936-23.184 0-14.256 11.664-24.912 30.096-24.912 11.088 0 21.888 3.888 30.24 9.504l-8.928 15.984c-6.48-4.176-14.544-7.344-21.312-7.344-4.464 0-7.632 2.016-7.632 4.32 0 3.312 3.168 4.032 11.952 6.336 13.248 3.168 28.08 7.488 28.08 24.48 0 14.976-12.096 24.6239997-31.248 24.6239997zm67.694398 0c-12.528 0-25.488-4.1759997-34.56-11.2319997l9.792-15.696c6.912 4.896 16.416 8.496 25.344 8.496 5.328 0 8.352-1.728 8.352-4.608 0-3.6-4.896-5.04-12.24-6.768-14.4-3.312-27.792-7.056-27.936-23.184 0-14.256 11.664-24.912 30.096-24.912 11.088 0 21.888 3.888 30.24 9.504l-8.928 15.984c-6.48-4.176-14.544-7.344-21.312-7.344-4.464 0-7.632 2.016-7.632 4.32 0 3.312 3.168 4.032 11.952 6.336 13.248 3.168 28.08 7.488 28.08 24.48 0 14.976-12.096 24.6239997-31.248 24.6239997z" fill="#fff"/><path d="m412.257403 101.988378c-5.46 0-9.646-4.2769997-9.646-9.5549997 0-4.914 4.186-9.191 9.646-9.191 5.005 0 9.191 4.277 9.191 9.191 0 5.278-4.186 9.5549997-9.191 9.5549997zm23.578098-53.8719997c-4.55 0-8.19-3.731-8.19-8.19 0-4.277 3.64-8.008 8.19-8.008 4.459 0 8.008 3.731 8.008 8.008 0 4.459-3.549 8.19-8.008 8.19zm-8.099 68.9779997c-3.458 0-7.644-.819-10.101-2.002l1.547-11.284c1.183.455 3.094.819 4.641.819 2.457 0 4.186-2.093 4.186-5.0959997v-45.682h15.379v47.4109997c0 9.282-6.461 15.834-15.652 15.834zm41.505098-15.106c-7.917 0-16.107-2.6389997-21.84-7.0979997l6.188-9.919c4.368 3.094 10.374 5.369 16.016 5.369 3.367 0 5.278-1.092 5.278-2.912 0-2.275-3.094-3.185-7.735-4.277-9.1-2.093-17.563-4.459-17.654-14.651 0-9.009 7.371-15.743 19.019-15.743 7.007 0 13.832 2.457 19.11 6.006l-5.642 10.101c-4.095-2.639-9.191-4.641-13.468-4.641-2.821 0-4.823 1.274-4.823 2.73 0 2.093 2.002 2.548 7.553 4.004 8.372 2.002 17.745 4.732 17.745 15.47 0 9.464-7.644 15.5609997-19.747 15.5609997z" fill="#ddd"/></g></g></svg>
