<svg height="710" viewBox="0 0 710 710" width="710" xmlns="http://www.w3.org/2000/svg" xmlns:xlink="http://www.w3.org/1999/xlink"><linearGradient id="a" x1="50%" x2="50%" y1="0%" y2="100%"><stop offset="0" stop-color="#def5fd"/><stop offset="1" stop-color="#bae7fa"/></linearGradient><g fill="none" fill-rule="evenodd" transform="translate(108 32)"><g transform="translate(21.801039 .119764)"><path d="m427.903156 209.170392c0 114.817823-95.954676 207.956608-213.903156 207.956608-118.2239351 0-213.90315597-93.138785-213.90315597-207.956608.00109308-115.0849014 95.67922087-208.22368632 213.90315597-208.22368632 117.94848 0 213.903156 93.13878492 213.903156 208.22368632z" fill="url(#a)" opacity=".372962"/><path d="m214 31.6c107.905 0 195.689 87.532 195.689 195.689 0 107.906-87.784 195.438-195.689 195.438-108.157 0-195.689-87.532-195.689-195.438.001-108.157 87.532-195.689 195.689-195.689z" fill="#2799eb"/><path d="m171.743 418.199c-87.783-19.116-153.432-97.341-153.432-190.91 0-93.82 65.648-172.045 153.432-191.161 87.783 19.116 153.683 97.341 153.683 191.161.001 93.568-65.899 171.794-153.683 190.91z" fill="#47c6ff"/><path d="m214 439.579h-156.953c-26.41 7.043-41.754 24.398-45.275 52.821h202.228 202.228c-3.522-28.423-19.116-45.778-45.526-52.821z" fill="#2c3337"/><path d="m214 397.574h-104.887c-22.637 1.258-50.557 14.337-52.066 42.256h156.953 156.702c-1.258-27.92-29.429-40.999-52.067-42.256z" fill="#40494c"/></g><path d="m152.234026 114.479212c5.218151 17.176944 18.660414 30.619207 35.837358 35.837359 17.904821 5.986751 17.904821 11.945786 0 17.877104-17.176944 5.218152-30.619207 18.660415-35.837358 35.837359-5.986752 17.904821-11.945787 17.904821-17.877105 0-5.218152-17.176944-18.660415-30.619207-35.8373585-35.837359-17.9048211-5.986751-17.9048211-11.945786 0-17.877104 17.1769435-5.218152 30.6192065-18.660415 35.8373585-35.837359 5.931318-17.960254 11.890353-17.960254 17.877105 0z" fill="#fff" fill-rule="nonzero"/></g></svg>